<?xml version="1.0" encoding="UTF-8" standalone="no"?>
<svg
   xmlns:dc="http://purl.org/dc/elements/1.1/"
   xmlns:cc="http://creativecommons.org/ns#"
   xmlns:rdf="http://www.w3.org/1999/02/22-rdf-syntax-ns#"
   xmlns:svg="http://www.w3.org/2000/svg"
   xmlns="http://www.w3.org/2000/svg"
   xmlns:sodipodi="http://sodipodi.sourceforge.net/DTD/sodipodi-0.dtd"
   xmlns:inkscape="http://www.inkscape.org/namespaces/inkscape"
   xml:space="preserve"
   version="1.1"
   y="0px"
   x="0px"
   viewBox="0 0 187.8 40.7"
   id="svg3019"
   inkscape:version="0.48.5 r10040"
   width="100%"
   height="100%"
   sodipodi:docname="liveupdate-logo.svg"><metadata
   id="metadata3051"><rdf:RDF><cc:Work
       rdf:about=""><dc:format>image/svg+xml</dc:format><dc:type
         rdf:resource="http://purl.org/dc/dcmitype/StillImage" /></cc:Work></rdf:RDF></metadata><defs
   id="defs3049" /><sodipodi:namedview
   pagecolor="#ffffff"
   bordercolor="#666666"
   borderopacity="1"
   objecttolerance="10"
   gridtolerance="10"
   guidetolerance="10"
   inkscape:pageopacity="0"
   inkscape:pageshadow="2"
   inkscape:window-width="1600"
   inkscape:window-height="838"
   id="namedview3047"
   showgrid="false"
   inkscape:zoom="1.6134185"
   inkscape:cx="93.9"
   inkscape:cy="20.35"
   inkscape:window-x="-8"
   inkscape:window-y="200"
   inkscape:window-maximized="1"
   inkscape:current-layer="svg3019" />
		<circle
   cy="6.5"
   cx="134.1"
   r="3.8"
   fill="#F04B23"
   id="circle3021" />
		<path
   d="m137.1 35.9c0 1.5-1 2.8-2.4 3.1-1.9 0.4-3.6-1.1-3.6-2.9v-17.9c0-3.3 2.7-6 6-6v23.7z"
   fill="#ccc"
   id="path3023" />
		<path
   d="m126.6 35.9c0 1.5-1 2.8-2.4 3.1-1.9 0.4-3.6-1.1-3.6-2.9v-28.7c0-3.3 2.7-6 6-6v34.5z"
   fill="#ccc"
   id="path3025" />
<path
   d="m182 27.8h0.8c1.6 0 2.9-1.3 2.8-3 0-0.9-0.1-1.6-0.2-2-1.1-6.6-6-10.6-11.8-10.6-6.7 0-12.1 5.2-12.1 13.5s5.4 13.5 12.1 13.5c4.4 0 8.3-2.3 10.4-6.3l-1.7-0.9c-1.6-0.8-3.5-0.5-4.8 0.7-1.1 1-2.4 1.5-3.8 1.5-3 0-5.6-2.3-6.2-6.4h14.5zm-8.4-10.6c2.8 0 5.2 2 6.1 5.5h-12.1c0.8-3.6 3.2-5.5 6-5.5z"
   fill="#ccc"
   id="path3027" />
			
			
			
			
			
	
	
		
<path
   d="m153.5 37.2l9.5-24.7c-2.8-1.1-6 0.3-7.1 3.2l-5 12.9-5.8-14.7c-0.5-1.4-2.2-2.1-3.6-1.6s-2.1 2.2-1.6 3.6l8.4 21.3c1.1 2.5 4.3 2.3 5.2 0z"
   fill="#ccc"
   id="path3045" />
<text
   xml:space="preserve"
   style="font-size:35.65322495px;font-style:normal;font-weight:normal;line-height:125%;letter-spacing:0px;word-spacing:0px;fill:#000000;fill-opacity:1;stroke:none;font-family:Sans"
   x="-0.30641019"
   y="28.64509"
   id="text3053"
   sodipodi:linespacing="125%"
   transform="scale(0.76347783,1.3097957)"><tspan
     sodipodi:role="line"
     id="tspan3055"
     x="-0.30641019"
     y="28.64509"
     style="font-weight:bold;-inkscape-font-specification:Sans Bold">subSPUF</tspan></text>
</svg>